<?xml version='1.0' encoding='UTF-8' standalone='no'?>
<svg baseProfile="tiny" height="240mm" version="1.2" viewBox="0 0 6400 2400" width="640mm" xmlns="http://www.w3.org/2000/svg" xmlns:cc="http://creativecommons.org/ns#" xmlns:dc="http://purl.org/dc/elements/1.1/" xmlns:freecad="https://www.freecad.org/wiki/index.php?title=Svg_Namespace" xmlns:inkscape="http://www.inkscape.org/namespaces/inkscape" xmlns:rdf="http://www.w3.org/1999/02/22-rdf-syntax-ns#" xmlns:sodipodi="http://sodipodi.sourceforge.net/DTD/sodipodi-0.dtd" xmlns:svg="http://www.w3.org/2000/svg" xmlns:xlink="http://www.w3.org/1999/xlink">
 <title>FreeCAD SVG Export</title>
 <desc>Drawing page: Planche_Gabarit exported from FreeCAD document: PorteManteau</desc>
 <defs/>
 <g id="Planche_Gabarit" inkscape:groupmode="layer" inkscape:label="TechDraw">
  <g fill="none" fill-rule="evenodd" id="DrawingContent" stroke="black" stroke-linecap="square" stroke-linejoin="bevel" stroke-width="1">
   <g fill="#f1f3f5" fill-opacity="1" font-family="Sans Serif" font-size="31.75" font-style="normal" font-weight="400" stroke="none" transform="matrix(1,0,0,1,3200,900)">
    <path d="M3000,530 L3000,-530 C3000,-596.274 2946.27,-650 2880,-650 L-2880,-650 C-2946.27,-650 -3000,-596.274 -3000,-530 L-3000,530 C-3000,596.274 -2946.27,650 -2880,650 L2880,650 C2946.27,650 3000,596.274 3000,530 " fill-rule="evenodd" vector-effect="non-scaling-stroke"/>
   </g>
   <g fill="#f1f3f5" fill-opacity="1" font-family="Sans Serif" font-size="31.75" font-style="normal" font-weight="400" stroke="none" transform="matrix(1,0,0,1,3200,900)">
    <path d="M2970,530 L2970,-530 C2970,-579.706 2929.71,-620 2880,-620 L-2880,-620 C-2929.71,-620 -2970,-579.706 -2970,-530 L-2970,530 C-2970,579.706 -2929.71,620 -2880,620 L2880,620 C2929.71,620 2970,579.706 2970,530 " fill-rule="evenodd" vector-effect="non-scaling-stroke"/>
   </g>
   <g fill="#f1f3f5" fill-opacity="1" font-family="Sans Serif" font-size="31.75" font-style="normal" font-weight="400" stroke="none" transform="matrix(1,0,0,1,3200,900)">
    <path d="M-2880,650 L2880,650 L2880,620 L-2880,620 L-2880,650" fill-rule="evenodd" vector-effect="non-scaling-stroke"/>
   </g>
   <g fill="#f1f3f5" fill-opacity="1" font-family="Sans Serif" font-size="31.75" font-style="normal" font-weight="400" stroke="none" transform="matrix(1,0,0,1,3200,900)">
    <path d="M2880,-650 L2880,-620 L-2880,-620 L-2880,-650 L2880,-650" fill-rule="evenodd" vector-effect="non-scaling-stroke"/>
   </g>
   <g fill="#f1f3f5" fill-opacity="1" font-family="Sans Serif" font-size="31.75" font-style="normal" font-weight="400" stroke="none" transform="matrix(1,0,0,1,3200,900)">
    <path d="M3000,530 L3000,-530 L2970,-530 L2970,530 L3000,530" fill-rule="evenodd" vector-effect="non-scaling-stroke"/>
   </g>
   <g fill="#f1f3f5" fill-opacity="1" font-family="Sans Serif" font-size="31.75" font-style="normal" font-weight="400" stroke="none" transform="matrix(1,0,0,1,3200,900)">
    <path d="M-3000,-530 L-2970,-530 L-2970,530 L-3000,530 L-3000,-530" fill-rule="evenodd" vector-effect="non-scaling-stroke"/>
   </g>
   <g fill="#f1f3f5" fill-opacity="1" font-family="Sans Serif" font-size="31.75" font-style="normal" font-weight="400" stroke="none" transform="matrix(1,0,0,1,3200,900)">
    <path d="M-2310,150 C-2310,199.706 -2350.29,240 -2400,240 C-2449.71,240 -2490,199.706 -2490,150 C-2490,100.294 -2449.71,60 -2400,60 C-2350.29,60 -2310,100.294 -2310,150 " fill-rule="evenodd" vector-effect="non-scaling-stroke"/>
   </g>
   <g fill="#f1f3f5" fill-opacity="1" font-family="Sans Serif" font-size="31.75" font-style="normal" font-weight="400" stroke="none" transform="matrix(1,0,0,1,3200,900)">
    <path d="M2490,150 C2490,199.706 2449.71,240 2400,240 C2350.29,240 2310,199.706 2310,150 C2310,100.294 2350.29,60 2400,60 C2449.71,60 2490,100.294 2490,150 " fill-rule="evenodd" vector-effect="non-scaling-stroke"/>
   </g>
   <g fill="#f1f3f5" fill-opacity="1" font-family="Sans Serif" font-size="31.75" font-style="normal" font-weight="400" stroke="none" transform="matrix(1,0,0,1,3200,900)">
    <path d="M-1110,150 C-1110,199.706 -1150.29,240 -1200,240 C-1249.71,240 -1290,199.706 -1290,150 C-1290,100.294 -1249.71,60 -1200,60 C-1150.29,60 -1110,100.294 -1110,150 " fill-rule="evenodd" vector-effect="non-scaling-stroke"/>
   </g>
   <g fill="#f1f3f5" fill-opacity="1" font-family="Sans Serif" font-size="31.75" font-style="normal" font-weight="400" stroke="none" transform="matrix(1,0,0,1,3200,900)">
    <path d="M90,150 C90,199.706 49.7056,240 4.99999e-07,240 C-49.7056,240 -90,199.706 -90,150 C-90,100.294 -49.7056,60 4.99999e-07,60 C49.7056,60 90,100.294 90,150 " fill-rule="evenodd" vector-effect="non-scaling-stroke"/>
   </g>
   <g fill="#f1f3f5" fill-opacity="1" font-family="Sans Serif" font-size="31.75" font-style="normal" font-weight="400" stroke="none" transform="matrix(1,0,0,1,3200,900)">
    <path d="M1290,150 C1290,199.706 1249.71,240 1200,240 C1150.29,240 1110,199.706 1110,150 C1110,100.294 1150.29,60 1200,60 C1249.71,60 1290,100.294 1290,150 " fill-rule="evenodd" vector-effect="non-scaling-stroke"/>
   </g>
   <g fill="#f1f3f5" fill-opacity="1" font-family="Sans Serif" font-size="31.75" font-style="normal" font-weight="400" stroke="none" transform="matrix(1,0,0,1,3200,900)">
    <path d="M55,-350 C55,-319.624 30.3757,-295 4.99999e-07,-295 C-30.3757,-295 -55,-319.624 -55,-350 C-55,-380.376 -30.3757,-405 4.99999e-07,-405 C30.3757,-405 55,-380.376 55,-350 " fill-rule="evenodd" vector-effect="non-scaling-stroke"/>
   </g>
   <g fill="#f1f3f5" fill-opacity="1" font-family="Sans Serif" font-size="31.75" font-style="normal" font-weight="400" stroke="none" transform="matrix(1,0,0,1,3200,900)">
    <path d="M-1745,-350 C-1745,-319.624 -1769.62,-295 -1800,-295 C-1830.38,-295 -1855,-319.624 -1855,-350 C-1855,-380.376 -1830.38,-405 -1800,-405 C-1769.62,-405 -1745,-380.376 -1745,-350 " fill-rule="evenodd" vector-effect="non-scaling-stroke"/>
   </g>
   <g fill="#f1f3f5" fill-opacity="1" font-family="Sans Serif" font-size="31.75" font-style="normal" font-weight="400" stroke="none" transform="matrix(1,0,0,1,3200,900)">
    <path d="M1855,-350 C1855,-319.624 1830.38,-295 1800,-295 C1769.62,-295 1745,-319.624 1745,-350 C1745,-380.376 1769.62,-405 1800,-405 C1830.38,-405 1855,-380.376 1855,-350 " fill-rule="evenodd" vector-effect="non-scaling-stroke"/>
   </g>
   <g fill="#f1f3f5" fill-opacity="1" font-family="Sans Serif" font-size="31.75" font-style="normal" font-weight="400" stroke="none" transform="matrix(1,0,0,1,3200,900)">
    <path d="M-2880,-650 L-2880,-620 C-2929.71,-620 -2970,-579.706 -2970,-530 L-3000,-530 C-3000,-596.274 -2946.27,-650 -2880,-650 " fill-rule="evenodd" vector-effect="non-scaling-stroke"/>
   </g>
   <g fill="#f1f3f5" fill-opacity="1" font-family="Sans Serif" font-size="31.75" font-style="normal" font-weight="400" stroke="none" transform="matrix(1,0,0,1,3200,900)">
    <path d="M-3000,530 C-3000,596.274 -2946.27,650 -2880,650 L-2880,620 C-2929.71,620 -2970,579.706 -2970,530 L-3000,530" fill-rule="evenodd" vector-effect="non-scaling-stroke"/>
   </g>
   <g fill="#f1f3f5" fill-opacity="1" font-family="Sans Serif" font-size="31.75" font-style="normal" font-weight="400" stroke="none" transform="matrix(1,0,0,1,3200,900)">
    <path d="M3000,-530 L2970,-530 C2970,-579.706 2929.71,-620 2880,-620 L2880,-650 C2946.27,-650 3000,-596.274 3000,-530 " fill-rule="evenodd" vector-effect="non-scaling-stroke"/>
   </g>
   <g fill="#f1f3f5" fill-opacity="1" font-family="Sans Serif" font-size="31.75" font-style="normal" font-weight="400" stroke="none" transform="matrix(1,0,0,1,3200,900)">
    <path d="M2880,650 C2946.27,650 3000,596.274 3000,530 L2970,530 C2970,579.706 2929.71,620 2880,620 L2880,650" fill-rule="evenodd" vector-effect="non-scaling-stroke"/>
   </g>
   <g fill="#f1f3f5" fill-opacity="1" font-family="Sans Serif" font-size="31.75" font-style="normal" font-weight="400" stroke="none" transform="matrix(1,0,0,1,3200,900)">
    <path d="M27.5,-350 C27.5,-334.812 15.1878,-322.5 4.99999e-07,-322.5 C-15.1878,-322.5 -27.5,-334.812 -27.5,-350 C-27.5,-365.188 -15.1878,-377.5 4.99999e-07,-377.5 C15.1878,-377.5 27.5,-365.188 27.5,-350 " fill-rule="evenodd" vector-effect="non-scaling-stroke"/>
   </g>
   <g fill="#f1f3f5" fill-opacity="1" font-family="Sans Serif" font-size="31.75" font-style="normal" font-weight="400" stroke="none" transform="matrix(1,0,0,1,3200,900)">
    <path d="M-1772.5,-350 C-1772.5,-334.812 -1784.81,-322.5 -1800,-322.5 C-1815.19,-322.5 -1827.5,-334.812 -1827.5,-350 C-1827.5,-365.188 -1815.19,-377.5 -1800,-377.5 C-1784.81,-377.5 -1772.5,-365.188 -1772.5,-350 " fill-rule="evenodd" vector-effect="non-scaling-stroke"/>
   </g>
   <g fill="#f1f3f5" fill-opacity="1" font-family="Sans Serif" font-size="31.75" font-style="normal" font-weight="400" stroke="none" transform="matrix(1,0,0,1,3200,900)">
    <path d="M1827.5,-350 C1827.5,-334.812 1815.19,-322.5 1800,-322.5 C1784.81,-322.5 1772.5,-334.812 1772.5,-350 C1772.5,-365.188 1784.81,-377.5 1800,-377.5 C1815.19,-377.5 1827.5,-365.188 1827.5,-350 " fill-rule="evenodd" vector-effect="non-scaling-stroke"/>
   </g>
   <g fill="none" font-family="Sans Serif" font-size="31.75" font-style="normal" font-weight="400" stroke="#212529" stroke-linecap="round" stroke-linejoin="bevel" stroke-opacity="1" stroke-width="7" transform="matrix(1,0,0,1,3200,900)">
    <path d="M-2880,650 L2880,650" fill-rule="evenodd" vector-effect="none"/>
   </g>
   <g fill="none" font-family="Sans Serif" font-size="31.75" font-style="normal" font-weight="400" stroke="#212529" stroke-linecap="round" stroke-linejoin="bevel" stroke-opacity="1" stroke-width="7" transform="matrix(1,0,0,1,3200,900)">
    <path d="M-3000,530 C-3000,596.274 -2946.27,650 -2880,650 " fill-rule="evenodd" vector-effect="none"/>
   </g>
   <g fill="none" font-family="Sans Serif" font-size="31.75" font-style="normal" font-weight="400" stroke="#212529" stroke-linecap="round" stroke-linejoin="bevel" stroke-opacity="1" stroke-width="7" transform="matrix(1,0,0,1,3200,900)">
    <path d="M-3000,-530 L-3000,530" fill-rule="evenodd" vector-effect="none"/>
   </g>
   <g fill="none" font-family="Sans Serif" font-size="31.75" font-style="normal" font-weight="400" stroke="#212529" stroke-linecap="round" stroke-linejoin="bevel" stroke-opacity="1" stroke-width="7" transform="matrix(1,0,0,1,3200,900)">
    <path d="M-2310,150 C-2310,199.706 -2350.29,240 -2400,240 C-2449.71,240 -2490,199.706 -2490,150 C-2490,100.294 -2449.71,60 -2400,60 C-2350.29,60 -2310,100.294 -2310,150 " fill-rule="evenodd" vector-effect="none"/>
   </g>
   <g fill="none" font-family="Sans Serif" font-size="31.75" font-style="normal" font-weight="400" stroke="#212529" stroke-linecap="round" stroke-linejoin="bevel" stroke-opacity="1" stroke-width="7" transform="matrix(1,0,0,1,3200,900)">
    <path d="M-1110,150 C-1110,199.706 -1150.29,240 -1200,240 C-1249.71,240 -1290,199.706 -1290,150 C-1290,100.294 -1249.71,60 -1200,60 C-1150.29,60 -1110,100.294 -1110,150 " fill-rule="evenodd" vector-effect="none"/>
   </g>
   <g fill="none" font-family="Sans Serif" font-size="31.75" font-style="normal" font-weight="400" stroke="#212529" stroke-linecap="round" stroke-linejoin="bevel" stroke-opacity="1" stroke-width="7" transform="matrix(1,0,0,1,3200,900)">
    <path d="M90,150 C90,199.706 49.7056,240 4.99999e-07,240 C-49.7056,240 -90,199.706 -90,150 C-90,100.294 -49.7056,60 4.99999e-07,60 C49.7056,60 90,100.294 90,150 " fill-rule="evenodd" vector-effect="none"/>
   </g>
   <g fill="none" font-family="Sans Serif" font-size="31.75" font-style="normal" font-weight="400" stroke="#212529" stroke-linecap="round" stroke-linejoin="bevel" stroke-opacity="1" stroke-width="7" transform="matrix(1,0,0,1,3200,900)">
    <path d="M-1745,-350 C-1745,-319.624 -1769.62,-295 -1800,-295 C-1830.38,-295 -1855,-319.624 -1855,-350 C-1855,-380.376 -1830.38,-405 -1800,-405 C-1769.62,-405 -1745,-380.376 -1745,-350 " fill-rule="evenodd" vector-effect="none"/>
   </g>
   <g fill="none" font-family="Sans Serif" font-size="31.75" font-style="normal" font-weight="400" stroke="#212529" stroke-linecap="round" stroke-linejoin="bevel" stroke-opacity="1" stroke-width="7" transform="matrix(1,0,0,1,3200,900)">
    <path d="M55,-350 C55,-319.624 30.3757,-295 4.99999e-07,-295 C-30.3757,-295 -55,-319.624 -55,-350 C-55,-380.376 -30.3757,-405 4.99999e-07,-405 C30.3757,-405 55,-380.376 55,-350 " fill-rule="evenodd" vector-effect="none"/>
   </g>
   <g fill="none" font-family="Sans Serif" font-size="31.75" font-style="normal" font-weight="400" stroke="#212529" stroke-linecap="round" stroke-linejoin="bevel" stroke-opacity="1" stroke-width="7" transform="matrix(1,0,0,1,3200,900)">
    <path d="M1290,150 C1290,199.706 1249.71,240 1200,240 C1150.29,240 1110,199.706 1110,150 C1110,100.294 1150.29,60 1200,60 C1249.71,60 1290,100.294 1290,150 " fill-rule="evenodd" vector-effect="none"/>
   </g>
   <g fill="none" font-family="Sans Serif" font-size="31.75" font-style="normal" font-weight="400" stroke="#212529" stroke-linecap="round" stroke-linejoin="bevel" stroke-opacity="1" stroke-width="7" transform="matrix(1,0,0,1,3200,900)">
    <path d="M2490,150 C2490,199.706 2449.71,240 2400,240 C2350.29,240 2310,199.706 2310,150 C2310,100.294 2350.29,60 2400,60 C2449.71,60 2490,100.294 2490,150 " fill-rule="evenodd" vector-effect="none"/>
   </g>
   <g fill="none" font-family="Sans Serif" font-size="31.75" font-style="normal" font-weight="400" stroke="#212529" stroke-linecap="round" stroke-linejoin="bevel" stroke-opacity="1" stroke-width="7" transform="matrix(1,0,0,1,3200,900)">
    <path d="M1855,-350 C1855,-319.624 1830.38,-295 1800,-295 C1769.62,-295 1745,-319.624 1745,-350 C1745,-380.376 1769.62,-405 1800,-405 C1830.38,-405 1855,-380.376 1855,-350 " fill-rule="evenodd" vector-effect="none"/>
   </g>
   <g fill="none" font-family="Sans Serif" font-size="31.75" font-style="normal" font-weight="400" stroke="#212529" stroke-linecap="round" stroke-linejoin="bevel" stroke-opacity="1" stroke-width="7" transform="matrix(1,0,0,1,3200,900)">
    <path d="M2880,650 C2946.27,650 3000,596.274 3000,530 " fill-rule="evenodd" vector-effect="none"/>
   </g>
   <g fill="none" font-family="Sans Serif" font-size="31.75" font-style="normal" font-weight="400" stroke="#212529" stroke-linecap="round" stroke-linejoin="bevel" stroke-opacity="1" stroke-width="7" transform="matrix(1,0,0,1,3200,900)">
    <path d="M3000,530 L3000,-530" fill-rule="evenodd" vector-effect="none"/>
   </g>
   <g fill="none" font-family="Sans Serif" font-size="31.75" font-style="normal" font-weight="400" stroke="#212529" stroke-linecap="round" stroke-linejoin="bevel" stroke-opacity="1" stroke-width="7" transform="matrix(1,0,0,1,3200,900)">
    <path d="M2880,-650 L-2880,-650" fill-rule="evenodd" vector-effect="none"/>
   </g>
   <g fill="none" font-family="Sans Serif" font-size="31.75" font-style="normal" font-weight="400" stroke="#212529" stroke-linecap="round" stroke-linejoin="bevel" stroke-opacity="1" stroke-width="7" transform="matrix(1,0,0,1,3200,900)">
    <path d="M-1772.5,-350 C-1772.5,-334.812 -1784.81,-322.5 -1800,-322.5 C-1815.19,-322.5 -1827.5,-334.812 -1827.5,-350 C-1827.5,-365.188 -1815.19,-377.5 -1800,-377.5 C-1784.81,-377.5 -1772.5,-365.188 -1772.5,-350 " fill-rule="evenodd" vector-effect="none"/>
   </g>
   <g fill="none" font-family="Sans Serif" font-size="31.75" font-style="normal" font-weight="400" stroke="#212529" stroke-linecap="round" stroke-linejoin="bevel" stroke-opacity="1" stroke-width="7" transform="matrix(1,0,0,1,3200,900)">
    <path d="M27.5,-350 C27.5,-334.812 15.1878,-322.5 4.99999e-07,-322.5 C-15.1878,-322.5 -27.5,-334.812 -27.5,-350 C-27.5,-365.188 -15.1878,-377.5 4.99999e-07,-377.5 C15.1878,-377.5 27.5,-365.188 27.5,-350 " fill-rule="evenodd" vector-effect="none"/>
   </g>
   <g fill="none" font-family="Sans Serif" font-size="31.75" font-style="normal" font-weight="400" stroke="#212529" stroke-linecap="round" stroke-linejoin="bevel" stroke-opacity="1" stroke-width="7" transform="matrix(1,0,0,1,3200,900)">
    <path d="M1827.5,-350 C1827.5,-334.812 1815.19,-322.5 1800,-322.5 C1784.81,-322.5 1772.5,-334.812 1772.5,-350 C1772.5,-365.188 1784.81,-377.5 1800,-377.5 C1815.19,-377.5 1827.5,-365.188 1827.5,-350 " fill-rule="evenodd" vector-effect="none"/>
   </g>
   <g fill="none" font-family="Sans Serif" font-size="31.75" font-style="normal" font-weight="400" stroke="#212529" stroke-linecap="round" stroke-linejoin="bevel" stroke-opacity="1" stroke-width="7" transform="matrix(1,0,0,1,3200,900)">
    <path d="M-2880,-650 C-2946.27,-650 -3000,-596.274 -3000,-530 " fill-rule="evenodd" vector-effect="none"/>
   </g>
   <g fill="none" font-family="Sans Serif" font-size="31.75" font-style="normal" font-weight="400" stroke="#212529" stroke-linecap="round" stroke-linejoin="bevel" stroke-opacity="1" stroke-width="7" transform="matrix(1,0,0,1,3200,900)">
    <path d="M3000,-530 C3000,-596.274 2946.27,-650 2880,-650 " fill-rule="evenodd" vector-effect="none"/>
   </g>
   <g fill="none" font-family="Sans Serif" font-size="31.75" font-style="normal" font-weight="400" stroke="#212529" stroke-linecap="round" stroke-linejoin="bevel" stroke-opacity="1" stroke-width="7" transform="matrix(1,0,0,1,3200,900)">
    <path d="M-3000,530 C-3000,596.274 -2946.27,650 -2880,650 " fill-rule="evenodd" vector-effect="none"/>
   </g>
   <g fill="none" font-family="Sans Serif" font-size="31.75" font-style="normal" font-weight="400" stroke="#212529" stroke-linecap="round" stroke-linejoin="bevel" stroke-opacity="1" stroke-width="7" transform="matrix(1,0,0,1,3200,900)">
    <path d="M-2880,650 L-2880,620" fill-rule="evenodd" vector-effect="none"/>
   </g>
   <g fill="none" font-family="Sans Serif" font-size="31.75" font-style="normal" font-weight="400" stroke="#212529" stroke-linecap="round" stroke-linejoin="bevel" stroke-opacity="1" stroke-width="7" transform="matrix(1,0,0,1,3200,900)">
    <path d="M-2880,620 L2880,620" fill-rule="evenodd" vector-effect="none"/>
   </g>
   <g fill="none" font-family="Sans Serif" font-size="31.75" font-style="normal" font-weight="400" stroke="#212529" stroke-linecap="round" stroke-linejoin="bevel" stroke-opacity="1" stroke-width="7" transform="matrix(1,0,0,1,3200,900)">
    <path d="M2880,650 L2880,620" fill-rule="evenodd" vector-effect="none"/>
   </g>
   <g fill="none" font-family="Sans Serif" font-size="31.75" font-style="normal" font-weight="400" stroke="#212529" stroke-linecap="round" stroke-linejoin="bevel" stroke-opacity="1" stroke-width="7" transform="matrix(1,0,0,1,3200,900)">
    <path d="M2880,650 C2946.27,650 3000,596.274 3000,530 " fill-rule="evenodd" vector-effect="none"/>
   </g>
   <g fill="none" font-family="Sans Serif" font-size="31.75" font-style="normal" font-weight="400" stroke="#212529" stroke-linecap="round" stroke-linejoin="bevel" stroke-opacity="1" stroke-width="7" transform="matrix(1,0,0,1,3200,900)">
    <path d="M-3000,530 L-2970,530" fill-rule="evenodd" vector-effect="none"/>
   </g>
   <g fill="none" font-family="Sans Serif" font-size="31.75" font-style="normal" font-weight="400" stroke="#212529" stroke-linecap="round" stroke-linejoin="bevel" stroke-opacity="1" stroke-width="7" transform="matrix(1,0,0,1,3200,900)">
    <path d="M-2970,530 C-2970,579.706 -2929.71,620 -2880,620 " fill-rule="evenodd" vector-effect="none"/>
   </g>
   <g fill="none" font-family="Sans Serif" font-size="31.75" font-style="normal" font-weight="400" stroke="#212529" stroke-linecap="round" stroke-linejoin="bevel" stroke-opacity="1" stroke-width="7" transform="matrix(1,0,0,1,3200,900)">
    <path d="M2880,620 C2929.71,620 2970,579.706 2970,530 " fill-rule="evenodd" vector-effect="none"/>
   </g>
   <g fill="none" font-family="Sans Serif" font-size="31.75" font-style="normal" font-weight="400" stroke="#212529" stroke-linecap="round" stroke-linejoin="bevel" stroke-opacity="1" stroke-width="7" transform="matrix(1,0,0,1,3200,900)">
    <path d="M-2970,-530 L-2970,530" fill-rule="evenodd" vector-effect="none"/>
   </g>
   <g fill="none" font-family="Sans Serif" font-size="31.75" font-style="normal" font-weight="400" stroke="#212529" stroke-linecap="round" stroke-linejoin="bevel" stroke-opacity="1" stroke-width="7" transform="matrix(1,0,0,1,3200,900)">
    <path d="M2970,530 L2970,-530" fill-rule="evenodd" vector-effect="none"/>
   </g>
   <g fill="none" font-family="Sans Serif" font-size="31.75" font-style="normal" font-weight="400" stroke="#212529" stroke-linecap="round" stroke-linejoin="bevel" stroke-opacity="1" stroke-width="7" transform="matrix(1,0,0,1,3200,900)">
    <path d="M-2880,-620 C-2929.71,-620 -2970,-579.706 -2970,-530 " fill-rule="evenodd" vector-effect="none"/>
   </g>
   <g fill="none" font-family="Sans Serif" font-size="31.75" font-style="normal" font-weight="400" stroke="#212529" stroke-linecap="round" stroke-linejoin="bevel" stroke-opacity="1" stroke-width="7" transform="matrix(1,0,0,1,3200,900)">
    <path d="M2970,-530 C2970,-579.706 2929.71,-620 2880,-620 " fill-rule="evenodd" vector-effect="none"/>
   </g>
   <g fill="none" font-family="Sans Serif" font-size="31.75" font-style="normal" font-weight="400" stroke="#212529" stroke-linecap="round" stroke-linejoin="bevel" stroke-opacity="1" stroke-width="7" transform="matrix(1,0,0,1,3200,900)">
    <path d="M2880,-620 L-2880,-620" fill-rule="evenodd" vector-effect="none"/>
   </g>
   <g fill="none" font-family="Sans Serif" font-size="31.75" font-style="normal" font-weight="400" stroke="#212529" stroke-linecap="round" stroke-linejoin="bevel" stroke-opacity="1" stroke-width="7" transform="matrix(1,0,0,1,3200,900)">
    <path d="M3000,530 L2970,530" fill-rule="evenodd" vector-effect="none"/>
   </g>
   <g fill="none" font-family="Sans Serif" font-size="31.75" font-style="normal" font-weight="400" stroke="#212529" stroke-linecap="round" stroke-linejoin="bevel" stroke-opacity="1" stroke-width="7" transform="matrix(1,0,0,1,3200,900)">
    <path d="M-2880,-650 C-2946.27,-650 -3000,-596.274 -3000,-530 " fill-rule="evenodd" vector-effect="none"/>
   </g>
   <g fill="none" font-family="Sans Serif" font-size="31.75" font-style="normal" font-weight="400" stroke="#212529" stroke-linecap="round" stroke-linejoin="bevel" stroke-opacity="1" stroke-width="7" transform="matrix(1,0,0,1,3200,900)">
    <path d="M3000,-530 C3000,-596.274 2946.27,-650 2880,-650 " fill-rule="evenodd" vector-effect="none"/>
   </g>
   <g fill="none" font-family="Sans Serif" font-size="31.75" font-style="normal" font-weight="400" stroke="#212529" stroke-linecap="round" stroke-linejoin="bevel" stroke-opacity="1" stroke-width="7" transform="matrix(1,0,0,1,3200,900)">
    <path d="M-3000,-530 L-2970,-530" fill-rule="evenodd" vector-effect="none"/>
   </g>
   <g fill="none" font-family="Sans Serif" font-size="31.75" font-style="normal" font-weight="400" stroke="#212529" stroke-linecap="round" stroke-linejoin="bevel" stroke-opacity="1" stroke-width="7" transform="matrix(1,0,0,1,3200,900)">
    <path d="M3000,-530 L2970,-530" fill-rule="evenodd" vector-effect="none"/>
   </g>
   <g fill="none" font-family="Sans Serif" font-size="31.75" font-style="normal" font-weight="400" stroke="#212529" stroke-linecap="round" stroke-linejoin="bevel" stroke-opacity="1" stroke-width="7" transform="matrix(1,0,0,1,3200,900)">
    <path d="M-2880,-650 L-2880,-620" fill-rule="evenodd" vector-effect="none"/>
   </g>
   <g fill="none" font-family="Sans Serif" font-size="31.75" font-style="normal" font-weight="400" stroke="#212529" stroke-linecap="round" stroke-linejoin="bevel" stroke-opacity="1" stroke-width="7" transform="matrix(1,0,0,1,3200,900)">
    <path d="M2880,-650 L2880,-620" fill-rule="evenodd" vector-effect="none"/>
   </g>
  </g>
 </g>
</svg>
